<?xml version="1.0" encoding="UTF-8" ?>
<!DOCTYPE svg PUBLIC "-//W3C//DTD SVG 1.1//EN" "http://www.w3.org/Graphics/SVG/1.1/DTD/svg11.dtd">
<svg width="402pt" height="626pt" viewBox="0 0 402 626" version="1.1" xmlns="http://www.w3.org/2000/svg">
<path fill="#ffffff" d=" M 0.00 0.00 L 134.22 0.00 C 132.01 1.91 129.68 3.91 128.69 6.76 C 123.19 19.42 123.68 33.55 124.45 47.03 C 125.80 58.51 127.76 69.91 129.97 81.25 C 130.70 85.19 132.88 88.62 135.18 91.81 C 146.29 104.93 152.43 121.24 159.39 136.73 C 161.75 141.95 164.26 147.22 165.11 152.94 C 165.38 155.75 167.20 158.67 165.69 161.40 C 158.37 178.23 152.80 196.83 156.02 215.31 C 157.05 223.02 162.83 228.70 167.96 234.05 C 174.40 240.74 183.23 244.52 192.29 245.99 C 181.40 255.64 171.38 266.95 166.26 280.78 C 163.94 279.00 161.83 276.81 159.01 275.83 C 155.78 274.82 152.38 277.11 149.22 275.76 C 144.18 273.98 140.53 269.82 136.97 266.04 C 118.60 244.25 106.88 218.01 92.41 193.68 C 89.47 188.47 85.58 183.56 80.16 180.79 C 72.22 176.77 66.92 169.04 58.88 165.21 C 56.34 162.39 54.41 159.05 51.73 156.36 C 50.58 156.20 49.41 156.25 48.26 156.25 C 46.09 152.29 42.98 148.78 41.84 144.32 C 40.67 140.84 39.71 136.79 36.41 134.68 C 32.69 132.36 30.37 127.76 25.69 127.16 C 20.56 125.96 15.51 128.27 11.39 131.16 C 11.40 131.84 11.41 133.18 11.42 133.85 C 16.12 135.00 21.09 135.43 25.51 137.52 C 27.84 139.61 28.69 142.89 30.86 145.17 C 34.60 149.46 36.99 154.87 41.56 158.42 C 43.72 160.54 46.90 162.07 47.73 165.19 C 49.01 170.75 55.87 171.70 58.76 176.16 C 61.25 180.06 65.20 182.61 69.05 184.99 C 71.79 186.64 75.05 187.35 77.55 189.40 C 79.43 191.82 79.99 194.94 81.25 197.68 C 89.07 214.56 98.80 230.49 109.18 245.91 C 121.40 263.20 134.18 281.24 153.05 291.81 C 155.52 292.91 158.31 292.85 160.95 293.28 C 159.85 298.00 159.30 302.83 157.95 307.49 C 153.63 305.16 150.00 301.80 145.80 299.27 C 133.00 291.51 118.51 287.09 103.98 283.87 C 98.42 282.81 92.70 281.73 87.04 282.61 C 83.43 283.89 82.52 288.09 80.95 291.15 C 78.88 296.51 75.59 301.34 74.03 306.91 C 72.57 311.98 70.16 316.73 68.93 321.87 C 66.98 329.80 63.93 337.41 62.32 345.44 C 57.22 362.83 53.26 380.55 47.49 397.74 C 45.74 403.69 44.36 409.89 41.24 415.32 C 38.56 419.21 35.13 422.51 32.15 426.17 C 30.20 428.65 29.28 431.78 27.24 434.21 C 25.26 436.25 22.69 437.63 20.80 439.77 C 19.63 441.73 19.12 444.01 17.96 445.99 C 16.69 447.21 15.00 447.83 13.49 448.68 C 8.36 450.97 5.56 456.23 2.87 460.87 C 0.86 463.99 1.25 467.80 1.59 471.32 C 2.20 471.52 3.42 471.91 4.03 472.11 C 5.70 468.09 8.12 464.10 12.30 462.32 C 14.51 460.99 17.37 463.53 19.37 461.54 C 22.62 458.88 23.46 454.59 25.01 450.91 C 26.97 449.15 29.59 448.26 31.43 446.35 C 33.41 443.94 34.49 440.89 36.65 438.62 C 38.53 437.16 40.86 436.27 42.41 434.42 C 45.18 430.45 46.58 425.61 46.46 420.77 C 48.82 419.91 52.02 419.42 52.60 416.48 C 55.42 406.00 57.61 395.32 61.11 385.03 C 68.93 363.51 76.89 342.05 84.62 320.48 C 87.07 312.28 89.16 303.97 90.86 295.58 C 96.57 297.26 102.91 296.74 108.19 299.78 C 113.98 302.88 119.08 307.18 125.25 309.60 C 134.75 314.42 146.68 314.60 154.49 322.52 C 156.56 324.80 159.67 325.39 162.43 326.43 C 163.09 328.91 163.75 331.38 164.43 333.85 C 161.65 336.64 159.01 339.58 156.01 342.14 C 152.95 344.30 149.23 345.17 145.94 346.89 C 136.35 351.93 127.13 357.79 118.96 364.92 C 110.70 371.67 103.01 379.65 98.60 389.49 C 95.80 395.42 98.86 401.83 98.55 408.02 C 98.36 415.81 99.21 423.56 100.06 431.30 C 101.26 447.20 102.04 463.13 103.34 479.02 C 103.56 493.03 103.70 507.06 103.14 521.07 C 103.09 523.99 102.28 526.98 100.12 529.06 C 96.21 533.14 93.49 538.27 92.43 543.83 C 91.99 547.35 88.64 549.10 86.49 551.51 C 83.26 554.81 84.80 560.91 80.36 563.27 C 73.36 567.42 69.67 575.38 67.75 582.99 C 66.80 586.32 68.51 589.44 70.05 592.28 C 72.49 589.65 73.31 586.09 75.12 583.10 C 76.69 581.37 78.59 579.96 80.52 578.68 C 82.25 578.55 83.99 578.76 85.72 578.80 C 88.14 575.31 90.54 571.54 90.62 567.15 C 90.47 564.21 93.52 563.06 95.31 561.33 C 99.13 558.58 99.04 553.28 101.84 549.81 C 103.58 548.18 105.97 547.22 107.27 545.15 C 109.41 540.56 109.70 535.42 110.86 530.55 C 111.81 527.99 114.85 527.39 117.01 526.24 C 111.79 509.34 112.73 491.46 112.90 474.01 C 112.97 452.69 114.46 431.29 112.17 410.04 C 111.62 404.85 109.64 399.99 108.46 394.95 C 111.04 390.54 115.35 387.40 119.51 384.56 C 132.41 376.78 147.02 371.58 158.23 361.19 C 162.08 358.01 164.95 353.30 170.06 352.00 C 172.36 357.13 173.70 362.68 176.59 367.54 C 177.50 369.48 179.18 371.48 178.52 373.76 C 177.60 378.21 175.18 382.34 175.21 386.98 C 175.08 389.95 175.73 392.88 176.35 395.77 C 162.12 403.26 148.80 413.50 140.79 427.72 C 135.20 436.80 132.25 447.22 130.37 457.63 C 127.21 480.03 130.86 502.89 138.15 524.15 C 140.39 532.34 144.20 539.97 147.09 547.93 C 150.87 555.74 153.29 564.35 158.86 571.17 C 164.47 577.94 166.64 586.86 172.45 593.49 C 176.33 597.90 177.45 604.14 181.94 608.06 C 186.86 612.91 190.44 618.89 195.16 623.92 C 196.20 625.08 197.70 625.61 199.17 626.00 L 0.00 626.00 L 0.00 0.00 Z" />
<path fill="#000000" d=" M 134.22 0.00 L 136.88 0.00 C 143.13 1.30 144.69 8.58 143.58 14.00 C 140.96 27.38 138.82 40.85 137.00 54.36 C 136.35 61.56 136.11 68.81 136.58 76.02 C 136.84 82.61 141.81 87.55 145.02 92.93 C 155.43 107.87 160.70 125.44 168.02 141.93 C 168.73 144.37 171.53 144.50 173.59 144.94 C 176.25 141.81 178.87 138.65 181.59 135.58 C 184.08 132.92 182.91 129.02 184.07 125.90 C 186.10 123.21 188.94 121.16 192.13 120.06 C 192.43 122.87 192.58 125.70 192.75 128.52 C 198.22 128.75 203.69 128.74 209.16 128.55 C 209.79 125.79 208.49 122.07 210.99 120.13 C 214.12 122.30 218.79 124.57 218.51 129.03 C 218.65 131.30 218.77 133.80 220.41 135.58 C 223.13 138.66 225.76 141.82 228.43 144.94 C 230.10 144.54 231.95 144.44 233.33 143.29 C 239.38 130.48 243.52 116.79 250.22 104.27 C 253.82 96.83 259.04 90.34 263.27 83.26 C 264.84 80.72 265.42 77.72 265.51 74.77 C 266.77 53.56 261.32 32.79 258.28 11.96 C 257.41 7.05 259.84 1.01 265.17 0.00 L 266.99 0.00 C 269.35 1.16 271.50 2.92 272.66 5.32 C 276.50 13.63 278.06 22.86 277.97 31.98 C 278.49 48.33 275.09 64.43 272.20 80.43 C 271.48 84.90 269.13 88.87 266.39 92.39 C 257.54 102.69 252.22 115.35 246.55 127.54 C 243.31 136.29 238.08 144.39 236.74 153.76 C 236.53 156.09 235.06 158.49 236.10 160.79 C 241.47 173.59 246.34 186.93 246.80 200.95 C 247.01 208.42 246.96 216.41 243.22 223.11 C 237.51 231.26 230.40 239.11 220.93 242.84 C 217.36 244.36 213.53 245.16 209.75 245.97 C 220.53 255.70 230.70 266.92 235.71 280.78 C 238.29 278.84 240.67 276.29 243.96 275.59 C 246.32 275.41 248.63 276.06 250.98 276.20 C 256.23 275.31 259.97 271.15 263.56 267.56 C 273.76 256.30 281.60 243.19 289.15 230.08 C 296.75 217.21 303.25 203.71 311.18 191.04 C 313.89 186.56 317.80 182.88 322.42 180.42 C 330.03 176.29 335.34 168.98 343.12 165.18 C 345.53 162.51 347.33 159.34 349.87 156.80 C 351.25 156.12 352.77 155.83 354.16 155.18 C 356.66 151.89 359.01 148.34 360.16 144.33 C 361.34 140.85 362.29 136.79 365.60 134.67 C 369.28 132.30 371.66 127.81 376.31 127.14 C 381.82 126.06 388.50 128.03 391.39 133.16 C 386.77 134.95 381.73 135.32 377.14 137.18 C 375.24 137.91 374.62 140.02 373.62 141.59 C 371.22 145.47 368.02 148.78 365.65 152.68 C 363.19 156.79 358.96 159.27 355.65 162.59 C 353.79 164.35 354.34 167.59 352.05 169.01 C 349.15 171.44 345.50 173.04 343.21 176.13 C 339.30 181.84 332.95 185.21 326.78 187.93 C 322.74 189.45 322.40 194.28 320.75 197.67 C 311.08 218.44 298.77 237.88 285.33 256.39 C 277.45 266.69 269.45 277.21 259.01 285.06 C 254.44 287.75 250.61 292.32 245.02 292.76 C 243.69 292.93 242.36 293.10 241.03 293.27 C 242.24 297.98 242.67 302.84 244.04 307.51 C 249.34 304.43 253.91 300.24 259.37 297.41 C 273.83 289.69 289.80 284.90 306.00 282.56 C 310.21 282.38 316.08 281.03 318.43 285.66 C 322.26 294.20 326.94 302.40 329.49 311.45 C 332.83 319.29 334.35 327.71 337.21 335.72 C 340.99 350.52 345.11 365.24 349.16 379.97 C 350.77 387.57 353.89 394.72 355.78 402.24 C 357.32 407.11 358.54 412.25 361.54 416.47 C 363.99 419.66 366.77 422.58 369.40 425.63 C 371.47 428.02 372.47 431.10 374.33 433.65 C 376.30 436.03 379.15 437.45 381.21 439.76 C 382.37 441.73 382.88 444.01 384.06 445.98 C 386.63 448.17 390.19 448.92 392.56 451.41 C 397.36 456.91 402.25 463.69 400.44 471.43 C 399.81 471.58 398.56 471.89 397.94 472.05 C 396.29 468.06 393.86 464.11 389.73 462.33 C 387.50 460.99 384.63 463.49 382.62 461.52 C 379.33 458.90 378.56 454.56 377.01 450.89 C 375.09 449.08 372.44 448.24 370.58 446.34 C 368.57 443.95 367.56 440.84 365.34 438.62 C 363.46 437.16 361.14 436.22 359.59 434.37 C 356.80 430.43 355.40 425.60 355.58 420.79 C 353.85 420.07 351.96 419.63 350.49 418.45 C 349.32 416.98 348.99 415.07 348.51 413.31 C 346.65 405.03 344.45 396.82 342.13 388.66 C 339.27 380.57 336.51 372.44 333.36 364.45 C 325.51 341.65 315.48 319.45 311.18 295.58 C 305.22 297.28 298.57 296.74 293.16 300.12 C 287.59 303.24 282.57 307.32 276.59 309.68 C 267.14 314.46 255.24 314.59 247.51 322.54 C 245.42 324.84 242.16 325.12 239.61 326.64 C 238.75 329.04 238.29 331.56 237.68 334.03 C 240.44 336.69 243.02 339.57 245.93 342.09 C 249.03 344.28 252.80 345.18 256.14 346.92 C 269.26 353.83 281.56 362.47 291.97 373.05 C 297.19 378.90 302.63 385.17 304.49 392.99 C 305.03 398.35 303.11 403.62 303.44 409.01 C 303.81 419.71 301.59 430.26 301.37 440.94 C 300.21 453.28 299.95 465.68 298.75 478.02 C 298.35 492.33 298.35 506.66 298.88 520.98 C 298.93 523.93 299.72 526.97 301.93 529.07 C 305.81 533.15 308.52 538.28 309.58 543.82 C 310.20 548.62 316.03 550.03 317.25 554.53 C 318.39 557.55 318.35 561.56 321.62 563.24 C 328.67 567.44 332.43 575.41 334.29 583.11 C 335.20 586.44 333.48 589.52 331.91 592.33 C 329.77 589.76 328.79 586.56 327.27 583.66 C 325.79 581.55 323.56 580.10 321.47 578.67 C 319.75 578.55 318.02 578.75 316.30 578.79 C 313.88 575.30 311.52 571.53 311.40 567.15 C 311.53 564.22 308.52 563.02 306.72 561.30 C 303.55 559.00 303.04 554.84 301.31 551.59 C 299.97 548.37 295.79 547.66 294.44 544.44 C 292.52 539.87 292.28 534.86 291.03 530.12 C 289.78 527.96 287.14 527.32 285.06 526.26 C 291.14 506.08 288.89 484.76 289.02 464.01 C 288.61 446.03 287.97 427.98 289.85 410.07 C 290.39 404.87 292.38 400.01 293.57 394.97 C 289.72 388.70 283.09 384.70 276.76 381.24 C 265.21 375.09 252.88 369.83 243.28 360.68 C 239.66 357.59 236.83 353.22 231.95 352.01 C 229.67 357.14 228.32 362.67 225.44 367.53 C 224.60 369.26 223.30 370.96 223.36 372.96 C 224.07 377.76 226.84 382.11 226.79 387.05 C 226.89 389.75 226.22 392.39 225.84 395.05 C 227.30 397.02 229.62 398.07 231.68 399.32 C 248.69 408.56 262.27 424.30 268.02 442.87 C 276.63 469.21 272.71 497.94 263.98 523.72 C 261.80 532.07 257.88 539.80 254.92 547.88 C 251.15 555.70 248.69 564.30 243.16 571.17 C 237.69 577.74 235.54 586.39 230.00 592.92 C 227.54 595.95 225.68 599.40 224.01 602.91 C 222.38 606.45 219.05 608.70 216.76 611.76 C 212.58 616.53 209.37 622.26 204.11 626.00 L 199.17 626.00 C 197.70 625.61 196.20 625.08 195.16 623.92 C 190.44 618.89 186.86 612.91 181.94 608.06 C 177.45 604.14 176.33 597.90 172.45 593.49 C 166.64 586.86 164.47 577.94 158.86 571.17 C 153.29 564.35 150.87 555.74 147.09 547.93 C 144.20 539.97 140.39 532.34 138.15 524.15 C 130.86 502.89 127.21 480.03 130.37 457.63 C 132.25 447.22 135.20 436.80 140.79 427.72 C 148.80 413.50 162.12 403.26 176.35 395.77 C 175.73 392.88 175.08 389.95 175.21 386.98 C 175.18 382.34 177.60 378.21 178.52 373.76 C 179.18 371.48 177.50 369.48 176.59 367.54 C 173.70 362.68 172.36 357.13 170.06 352.00 C 164.95 353.30 162.08 358.01 158.23 361.19 C 147.02 371.58 132.41 376.78 119.51 384.56 C 115.35 387.40 111.04 390.54 108.46 394.95 C 109.64 399.99 111.62 404.85 112.17 410.04 C 114.46 431.29 112.97 452.69 112.90 474.01 C 112.73 491.46 111.79 509.34 117.01 526.24 C 114.85 527.39 111.81 527.99 110.86 530.55 C 109.70 535.42 109.41 540.56 107.27 545.15 C 105.97 547.22 103.58 548.18 101.84 549.81 C 99.04 553.28 99.13 558.58 95.31 561.33 C 93.52 563.06 90.47 564.21 90.62 567.15 C 90.54 571.54 88.14 575.31 85.72 578.80 C 83.99 578.76 82.25 578.55 80.52 578.68 C 78.59 579.96 76.69 581.37 75.12 583.10 C 73.31 586.09 72.49 589.65 70.05 592.28 C 68.51 589.44 66.80 586.32 67.75 582.99 C 69.67 575.38 73.36 567.42 80.36 563.27 C 84.80 560.91 83.26 554.81 86.49 551.51 C 88.64 549.10 91.99 547.35 92.43 543.83 C 93.49 538.27 96.21 533.14 100.12 529.06 C 102.28 526.98 103.09 523.99 103.14 521.07 C 103.70 507.06 103.56 493.03 103.34 479.02 C 102.04 463.13 101.26 447.20 100.06 431.30 C 99.21 423.56 98.36 415.81 98.55 408.02 C 98.86 401.83 95.80 395.42 98.60 389.49 C 103.01 379.65 110.70 371.67 118.96 364.92 C 127.13 357.79 136.35 351.93 145.94 346.89 C 149.23 345.17 152.95 344.30 156.01 342.14 C 159.01 339.58 161.65 336.64 164.43 333.85 C 163.75 331.38 163.09 328.91 162.43 326.43 C 159.67 325.39 156.56 324.80 154.49 322.52 C 146.68 314.60 134.75 314.42 125.25 309.60 C 119.08 307.18 113.98 302.88 108.19 299.78 C 102.91 296.74 96.57 297.26 90.86 295.58 C 89.16 303.97 87.07 312.28 84.62 320.48 C 76.89 342.05 68.93 363.51 61.11 385.03 C 57.61 395.32 55.42 406.00 52.60 416.48 C 52.02 419.42 48.82 419.91 46.46 420.77 C 46.58 425.61 45.18 430.45 42.41 434.42 C 40.86 436.27 38.53 437.16 36.65 438.62 C 34.49 440.89 33.41 443.94 31.43 446.35 C 29.59 448.26 26.97 449.15 25.01 450.91 C 23.46 454.59 22.62 458.88 19.37 461.54 C 17.37 463.53 14.51 460.99 12.30 462.32 C 8.12 464.10 5.70 468.09 4.03 472.11 C 3.42 471.91 2.20 471.52 1.59 471.32 C 1.25 467.80 0.86 463.99 2.87 460.87 C 5.56 456.23 8.36 450.97 13.49 448.68 C 15.00 447.83 16.69 447.21 17.96 445.99 C 19.12 444.01 19.63 441.73 20.80 439.77 C 22.69 437.63 25.26 436.25 27.24 434.21 C 29.28 431.78 30.20 428.65 32.15 426.17 C 35.13 422.51 38.56 419.21 41.24 415.32 C 44.36 409.89 45.74 403.69 47.49 397.74 C 53.26 380.55 57.22 362.83 62.32 345.44 C 63.93 337.41 66.98 329.80 68.93 321.87 C 70.16 316.73 72.57 311.98 74.03 306.91 C 75.59 301.34 78.88 296.51 80.95 291.15 C 82.52 288.09 83.43 283.89 87.04 282.61 C 92.70 281.73 98.42 282.81 103.98 283.87 C 118.51 287.09 133.00 291.51 145.80 299.27 C 150.00 301.80 153.63 305.16 157.95 307.49 C 159.30 302.83 159.85 298.00 160.95 293.28 C 158.31 292.85 155.52 292.91 153.05 291.81 C 134.18 281.24 121.40 263.20 109.18 245.91 C 98.80 230.49 89.07 214.56 81.25 197.68 C 79.99 194.94 79.43 191.82 77.55 189.40 C 75.05 187.35 71.79 186.64 69.05 184.99 C 65.20 182.61 61.25 180.06 58.76 176.16 C 55.87 171.70 49.01 170.75 47.73 165.19 C 46.90 162.07 43.72 160.54 41.56 158.42 C 36.99 154.87 34.60 149.46 30.86 145.17 C 28.69 142.89 27.84 139.61 25.51 137.52 C 21.09 135.43 16.12 135.00 11.42 133.85 C 11.41 133.18 11.40 131.84 11.39 131.16 C 15.51 128.27 20.56 125.96 25.69 127.16 C 30.37 127.76 32.69 132.36 36.41 134.68 C 39.71 136.79 40.67 140.84 41.84 144.32 C 42.98 148.78 46.09 152.29 48.26 156.25 C 49.41 156.25 50.58 156.20 51.73 156.36 C 54.41 159.05 56.34 162.39 58.88 165.21 C 66.92 169.04 72.22 176.77 80.16 180.79 C 85.58 183.56 89.47 188.47 92.41 193.68 C 106.88 218.01 118.60 244.25 136.97 266.04 C 140.53 269.82 144.18 273.98 149.22 275.76 C 152.38 277.11 155.78 274.82 159.01 275.83 C 161.83 276.81 163.94 279.00 166.26 280.78 C 171.38 266.95 181.40 255.64 192.29 245.99 C 183.23 244.52 174.40 240.74 167.96 234.05 C 162.83 228.70 157.05 223.02 156.02 215.31 C 152.80 196.83 158.37 178.23 165.69 161.40 C 167.20 158.67 165.38 155.75 165.11 152.94 C 164.26 147.22 161.75 141.95 159.39 136.73 C 152.43 121.24 146.29 104.93 135.18 91.81 C 132.88 88.62 130.70 85.19 129.97 81.25 C 127.76 69.91 125.80 58.51 124.45 47.03 C 123.68 33.55 123.19 19.42 128.69 6.76 C 129.68 3.91 132.01 1.91 134.22 0.00 Z" />
<path fill="#ffffff" d=" M 136.88 0.00 L 265.17 0.00 C 259.84 1.01 257.41 7.05 258.28 11.96 C 261.32 32.79 266.77 53.56 265.51 74.77 C 265.42 77.72 264.84 80.72 263.27 83.26 C 259.04 90.34 253.82 96.83 250.22 104.27 C 243.52 116.79 239.38 130.48 233.33 143.29 C 231.95 144.44 230.10 144.54 228.43 144.94 C 225.76 141.82 223.13 138.66 220.41 135.58 C 218.77 133.80 218.65 131.30 218.51 129.03 C 218.79 124.57 214.12 122.30 210.99 120.13 C 208.49 122.07 209.79 125.79 209.16 128.55 C 203.69 128.74 198.22 128.75 192.75 128.52 C 192.58 125.70 192.43 122.87 192.13 120.06 C 188.94 121.16 186.10 123.21 184.07 125.90 C 182.91 129.02 184.08 132.92 181.59 135.58 C 178.87 138.65 176.25 141.81 173.59 144.94 C 171.53 144.50 168.73 144.37 168.02 141.93 C 160.70 125.44 155.43 107.87 145.02 92.93 C 141.81 87.55 136.84 82.61 136.58 76.02 C 136.11 68.81 136.35 61.56 137.00 54.36 C 138.82 40.85 140.96 27.38 143.58 14.00 C 144.69 8.58 143.13 1.30 136.88 0.00 Z" />
<path fill="#ffffff" d=" M 266.99 0.00 L 402.00 0.00 L 402.00 626.00 L 204.11 626.00 C 209.37 622.26 212.58 616.53 216.76 611.76 C 219.05 608.70 222.38 606.45 224.01 602.91 C 225.68 599.40 227.54 595.95 230.00 592.92 C 235.54 586.39 237.69 577.74 243.16 571.17 C 248.69 564.30 251.15 555.70 254.92 547.88 C 257.88 539.80 261.80 532.07 263.98 523.72 C 272.71 497.94 276.63 469.21 268.02 442.87 C 262.27 424.30 248.69 408.56 231.68 399.32 C 229.62 398.07 227.30 397.02 225.84 395.05 C 226.22 392.39 226.89 389.75 226.79 387.05 C 226.84 382.11 224.07 377.76 223.36 372.96 C 223.30 370.96 224.60 369.26 225.44 367.53 C 228.32 362.67 229.67 357.14 231.95 352.01 C 236.83 353.22 239.66 357.59 243.28 360.68 C 252.88 369.83 265.21 375.09 276.76 381.24 C 283.09 384.70 289.72 388.70 293.57 394.97 C 292.38 400.01 290.39 404.87 289.85 410.07 C 287.97 427.98 288.61 446.03 289.02 464.01 C 288.89 484.76 291.14 506.08 285.06 526.26 C 287.14 527.32 289.78 527.96 291.03 530.12 C 292.28 534.86 292.52 539.87 294.44 544.44 C 295.79 547.66 299.97 548.37 301.31 551.59 C 303.04 554.84 303.55 559.00 306.72 561.30 C 308.52 563.02 311.53 564.22 311.40 567.15 C 311.52 571.53 313.88 575.30 316.30 578.79 C 318.02 578.75 319.75 578.55 321.47 578.67 C 323.56 580.10 325.79 581.55 327.27 583.66 C 328.79 586.56 329.77 589.76 331.91 592.33 C 333.48 589.52 335.20 586.44 334.29 583.11 C 332.43 575.41 328.67 567.44 321.62 563.24 C 318.35 561.56 318.39 557.55 317.25 554.53 C 316.03 550.03 310.20 548.62 309.58 543.82 C 308.52 538.28 305.81 533.15 301.93 529.07 C 299.72 526.97 298.93 523.93 298.88 520.98 C 298.35 506.66 298.35 492.33 298.75 478.02 C 299.95 465.68 300.21 453.28 301.37 440.94 C 301.59 430.26 303.81 419.71 303.44 409.01 C 303.11 403.62 305.03 398.35 304.49 392.99 C 302.63 385.17 297.19 378.90 291.97 373.05 C 281.56 362.47 269.26 353.83 256.14 346.92 C 252.80 345.18 249.03 344.28 245.93 342.09 C 243.02 339.57 240.44 336.69 237.68 334.03 C 238.29 331.56 238.75 329.04 239.61 326.64 C 242.16 325.12 245.42 324.84 247.51 322.54 C 255.24 314.59 267.14 314.46 276.59 309.68 C 282.57 307.32 287.59 303.24 293.16 300.12 C 298.57 296.74 305.22 297.28 311.18 295.58 C 315.48 319.45 325.51 341.65 333.36 364.45 C 336.51 372.44 339.27 380.57 342.13 388.66 C 344.45 396.82 346.65 405.03 348.51 413.31 C 348.99 415.07 349.32 416.98 350.49 418.45 C 351.96 419.63 353.85 420.07 355.58 420.79 C 355.40 425.60 356.80 430.43 359.59 434.37 C 361.14 436.22 363.46 437.16 365.34 438.62 C 367.56 440.84 368.57 443.95 370.58 446.34 C 372.44 448.24 375.09 449.08 377.01 450.89 C 378.56 454.56 379.33 458.90 382.62 461.52 C 384.63 463.49 387.50 460.99 389.73 462.33 C 393.86 464.11 396.29 468.06 397.94 472.05 C 398.56 471.89 399.81 471.58 400.44 471.43 C 402.25 463.69 397.36 456.91 392.56 451.41 C 390.19 448.92 386.63 448.17 384.06 445.98 C 382.88 444.01 382.37 441.73 381.21 439.76 C 379.15 437.45 376.30 436.03 374.33 433.65 C 372.47 431.10 371.47 428.02 369.40 425.63 C 366.77 422.58 363.99 419.66 361.54 416.47 C 358.54 412.25 357.32 407.11 355.78 402.24 C 353.89 394.72 350.77 387.57 349.16 379.97 C 345.11 365.24 340.99 350.52 337.21 335.72 C 334.35 327.71 332.83 319.29 329.49 311.45 C 326.94 302.40 322.26 294.20 318.43 285.66 C 316.08 281.03 310.21 282.38 306.00 282.56 C 289.80 284.90 273.83 289.69 259.37 297.41 C 253.91 300.24 249.34 304.43 244.04 307.51 C 242.67 302.84 242.24 297.98 241.03 293.27 C 242.36 293.10 243.69 292.93 245.02 292.76 C 250.61 292.32 254.44 287.75 259.01 285.06 C 269.45 277.21 277.45 266.69 285.33 256.39 C 298.77 237.88 311.08 218.44 320.75 197.67 C 322.40 194.28 322.74 189.45 326.78 187.93 C 332.95 185.21 339.30 181.84 343.21 176.13 C 345.50 173.04 349.15 171.44 352.05 169.01 C 354.34 167.59 353.79 164.35 355.65 162.59 C 358.96 159.27 363.19 156.79 365.65 152.68 C 368.02 148.78 371.22 145.47 373.62 141.59 C 374.62 140.02 375.24 137.91 377.14 137.18 C 381.73 135.32 386.77 134.95 391.39 133.16 C 388.50 128.03 381.82 126.06 376.31 127.14 C 371.66 127.81 369.28 132.30 365.60 134.67 C 362.29 136.79 361.34 140.85 360.16 144.33 C 359.01 148.34 356.66 151.89 354.16 155.18 C 352.77 155.83 351.25 156.12 349.87 156.80 C 347.33 159.34 345.53 162.51 343.12 165.18 C 335.34 168.98 330.03 176.29 322.42 180.42 C 317.80 182.88 313.89 186.56 311.18 191.04 C 303.25 203.71 296.75 217.21 289.15 230.08 C 281.60 243.19 273.76 256.30 263.56 267.56 C 259.97 271.15 256.23 275.31 250.98 276.20 C 248.63 276.06 246.32 275.41 243.96 275.59 C 240.67 276.29 238.29 278.84 235.71 280.78 C 230.70 266.92 220.53 255.70 209.75 245.97 C 213.53 245.16 217.36 244.36 220.93 242.84 C 230.40 239.11 237.51 231.26 243.22 223.11 C 246.96 216.41 247.01 208.42 246.80 200.95 C 246.34 186.93 241.47 173.59 236.10 160.79 C 235.06 158.49 236.53 156.09 236.74 153.76 C 238.08 144.39 243.31 136.29 246.55 127.54 C 252.22 115.35 257.54 102.69 266.39 92.39 C 269.13 88.87 271.48 84.90 272.20 80.43 C 275.09 64.43 278.49 48.33 277.97 31.98 C 278.06 22.86 276.50 13.63 272.66 5.32 C 271.50 2.92 269.35 1.16 266.99 0.00 Z" />
<path fill="#1c1c1c" d=" M 297.50 486.87 C 298.54 494.25 298.83 501.83 297.49 509.20 C 296.44 501.80 296.66 494.27 297.50 486.87 Z" />
<path fill="#1d1d1d" d=" M 104.53 509.19 C 103.18 502.13 103.37 494.84 104.51 487.76 C 105.42 494.86 105.53 502.09 104.53 509.19 Z" />
</svg>
